<svg width="474" height="62" viewBox="0 0 474 62" fill="none" xmlns="http://www.w3.org/2000/svg">
<path d="M5.52841 39V9.90909H25.1307V14.9801H11.679V21.9119H24.1222V26.983H11.679V33.929H25.1875V39H5.52841ZM36.1286 39.4119C34.7365 39.4119 33.496 39.1705 32.407 38.6875C31.3179 38.1951 30.4562 37.4706 29.8217 36.5142C29.1967 35.5483 28.8842 34.3456 28.8842 32.9062C28.8842 31.6941 29.1068 30.6761 29.5518 29.8523C29.9969 29.0284 30.603 28.3655 31.37 27.8636C32.1371 27.3617 33.0083 26.983 33.9837 26.7273C34.9685 26.4716 36.0007 26.2917 37.0803 26.1875C38.3492 26.0549 39.3719 25.9318 40.1484 25.8182C40.925 25.6951 41.4884 25.5152 41.8388 25.2784C42.1892 25.0417 42.3643 24.6913 42.3643 24.2273V24.142C42.3643 23.2424 42.0803 22.5464 41.5121 22.054C40.9534 21.5616 40.1579 21.3153 39.1257 21.3153C38.0367 21.3153 37.1702 21.5568 36.5263 22.0398C35.8823 22.5133 35.4562 23.1098 35.2479 23.8295L29.6513 23.375C29.9354 22.0492 30.4941 20.9034 31.3274 19.9375C32.1607 18.9621 33.2356 18.214 34.5518 17.6932C35.8776 17.1629 37.4117 16.8977 39.1541 16.8977C40.3662 16.8977 41.5263 17.0398 42.6342 17.3239C43.7517 17.608 44.7412 18.0483 45.603 18.6449C46.4742 19.2415 47.1607 20.0085 47.6626 20.946C48.1645 21.8741 48.4155 22.9867 48.4155 24.2841V39H42.6768V35.9744H42.5064C42.156 36.6562 41.6873 37.2576 41.1001 37.7784C40.513 38.2898 39.8075 38.6922 38.9837 38.9858C38.1598 39.2699 37.2081 39.4119 36.1286 39.4119ZM37.8615 35.2358C38.7517 35.2358 39.5376 35.0606 40.2195 34.7102C40.9013 34.3504 41.4363 33.8674 41.8246 33.2614C42.2128 32.6553 42.407 31.9687 42.407 31.2017V28.8864C42.2176 29.0095 41.9572 29.1231 41.6257 29.2273C41.3037 29.322 40.9392 29.4119 40.532 29.4972C40.1248 29.5729 39.7176 29.6439 39.3104 29.7102C38.9032 29.767 38.5339 29.8191 38.2024 29.8665C37.4922 29.9706 36.8719 30.1364 36.3416 30.3636C35.8113 30.5909 35.3994 30.8987 35.1058 31.2869C34.8123 31.6657 34.6655 32.1392 34.6655 32.7074C34.6655 33.5312 34.9638 34.161 35.5604 34.5966C36.1664 35.0227 36.9335 35.2358 37.8615 35.2358ZM71.2635 23.4034L65.7237 23.7443C65.629 23.2708 65.4254 22.8447 65.1129 22.4659C64.8004 22.0777 64.3885 21.7699 63.8771 21.5426C63.3752 21.3059 62.7739 21.1875 62.0732 21.1875C61.1357 21.1875 60.3449 21.3864 59.701 21.7841C59.0571 22.1723 58.7351 22.6932 58.7351 23.3466C58.7351 23.8674 58.9434 24.3078 59.3601 24.6676C59.7768 25.0275 60.4917 25.3163 61.505 25.5341L65.4538 26.3295C67.575 26.7652 69.1565 27.4659 70.1982 28.4318C71.2398 29.3977 71.7607 30.6667 71.7607 32.2386C71.7607 33.6686 71.3393 34.9233 70.4964 36.0028C69.6631 37.0824 68.5173 37.9252 67.0589 38.5312C65.6101 39.1278 63.9387 39.4261 62.0447 39.4261C59.1565 39.4261 56.8554 38.8248 55.1413 37.6222C53.4368 36.41 52.4377 34.7623 52.1442 32.679L58.0959 32.3665C58.2758 33.2472 58.7114 33.9195 59.4027 34.3835C60.094 34.8381 60.9794 35.0653 62.0589 35.0653C63.1196 35.0653 63.9718 34.8617 64.6158 34.4545C65.2692 34.0379 65.6006 33.5028 65.6101 32.8494C65.6006 32.3002 65.3686 31.8504 64.9141 31.5C64.4595 31.1402 63.7588 30.8655 62.8118 30.6761L59.0334 29.9233C56.9027 29.4972 55.3165 28.7585 54.2749 27.7074C53.2427 26.6562 52.7266 25.3163 52.7266 23.6875C52.7266 22.286 53.1054 21.0786 53.8629 20.0653C54.63 19.0521 55.7048 18.2708 57.0874 17.7216C58.4794 17.1723 60.1082 16.8977 61.9737 16.8977C64.7294 16.8977 66.898 17.4801 68.4794 18.6449C70.0703 19.8097 70.9983 21.3958 71.2635 23.4034ZM79.3068 47.1818C78.5398 47.1818 77.8201 47.1203 77.1477 46.9972C76.4848 46.8835 75.9356 46.7367 75.5 46.5568L76.8636 42.0398C77.5739 42.2576 78.2131 42.3759 78.7812 42.3949C79.3589 42.4138 79.8561 42.2813 80.2727 41.9972C80.6989 41.7131 81.0445 41.2301 81.3097 40.5483L81.6648 39.625L73.8381 17.1818H80.2017L84.7188 33.2045H84.946L89.5057 17.1818H95.9119L87.4318 41.358C87.0246 42.5322 86.4706 43.5549 85.7699 44.4261C85.0786 45.3068 84.2027 45.9839 83.142 46.4574C82.0814 46.9403 80.803 47.1818 79.3068 47.1818ZM112.57 39L106.633 17.1818H112.755L116.136 31.8409H116.335L119.857 17.1818H125.866L129.445 31.7557H129.63L132.954 17.1818H139.062L133.138 39H126.732L122.982 25.2784H122.712L118.962 39H112.57ZM148.511 39.4119C147.119 39.4119 145.879 39.1705 144.79 38.6875C143.701 38.1951 142.839 37.4706 142.205 36.5142C141.58 35.5483 141.267 34.3456 141.267 32.9062C141.267 31.6941 141.49 30.6761 141.935 29.8523C142.38 29.0284 142.986 28.3655 143.753 27.8636C144.52 27.3617 145.391 26.983 146.366 26.7273C147.351 26.4716 148.384 26.2917 149.463 26.1875C150.732 26.0549 151.755 25.9318 152.531 25.8182C153.308 25.6951 153.871 25.5152 154.222 25.2784C154.572 25.0417 154.747 24.6913 154.747 24.2273V24.142C154.747 23.2424 154.463 22.5464 153.895 22.054C153.336 21.5616 152.541 21.3153 151.509 21.3153C150.42 21.3153 149.553 21.5568 148.909 22.0398C148.265 22.5133 147.839 23.1098 147.631 23.8295L142.034 23.375C142.318 22.0492 142.877 20.9034 143.71 19.9375C144.544 18.9621 145.618 18.214 146.935 17.6932C148.26 17.1629 149.795 16.8977 151.537 16.8977C152.749 16.8977 153.909 17.0398 155.017 17.3239C156.134 17.608 157.124 18.0483 157.986 18.6449C158.857 19.2415 159.544 20.0085 160.045 20.946C160.547 21.8741 160.798 22.9867 160.798 24.2841V39H155.06V35.9744H154.889C154.539 36.6562 154.07 37.2576 153.483 37.7784C152.896 38.2898 152.19 38.6922 151.366 38.9858C150.543 39.2699 149.591 39.4119 148.511 39.4119ZM150.244 35.2358C151.134 35.2358 151.92 35.0606 152.602 34.7102C153.284 34.3504 153.819 33.8674 154.207 33.2614C154.596 32.6553 154.79 31.9687 154.79 31.2017V28.8864C154.6 29.0095 154.34 29.1231 154.009 29.2273C153.687 29.322 153.322 29.4119 152.915 29.4972C152.508 29.5729 152.1 29.6439 151.693 29.7102C151.286 29.767 150.917 29.8191 150.585 29.8665C149.875 29.9706 149.255 30.1364 148.724 30.3636C148.194 30.5909 147.782 30.8987 147.489 31.2869C147.195 31.6657 147.048 32.1392 147.048 32.7074C147.048 33.5312 147.347 34.161 147.943 34.5966C148.549 35.0227 149.316 35.2358 150.244 35.2358ZM168.447 47.1818C167.68 47.1818 166.961 47.1203 166.288 46.9972C165.625 46.8835 165.076 46.7367 164.641 46.5568L166.004 42.0398C166.714 42.2576 167.354 42.3759 167.922 42.3949C168.5 42.4138 168.997 42.2813 169.413 41.9972C169.839 41.7131 170.185 41.2301 170.45 40.5483L170.805 39.625L162.979 17.1818H169.342L173.859 33.2045H174.087L178.646 17.1818H185.053L176.572 41.358C176.165 42.5322 175.611 43.5549 174.911 44.4261C174.219 45.3068 173.343 45.9839 172.283 46.4574C171.222 46.9403 169.944 47.1818 168.447 47.1818ZM209.012 17.1818V21.7273H195.873V17.1818H209.012ZM198.856 11.9545H204.907V32.2955C204.907 32.8542 204.992 33.2898 205.163 33.6023C205.333 33.9053 205.57 34.1184 205.873 34.2415C206.185 34.3646 206.545 34.4261 206.952 34.4261C207.237 34.4261 207.521 34.4025 207.805 34.3551C208.089 34.2983 208.307 34.2557 208.458 34.2273L209.41 38.7301C209.107 38.8248 208.681 38.9337 208.131 39.0568C207.582 39.1894 206.915 39.2699 206.129 39.2983C204.67 39.3551 203.392 39.161 202.293 38.7159C201.204 38.2708 200.357 37.5795 199.751 36.642C199.145 35.7045 198.846 34.5208 198.856 33.0909V11.9545ZM222.577 39.4261C220.371 39.4261 218.463 38.9574 216.853 38.0199C215.253 37.0729 214.017 35.7566 213.146 34.071C212.274 32.3759 211.839 30.411 211.839 28.1761C211.839 25.9223 212.274 23.9527 213.146 22.267C214.017 20.572 215.253 19.2557 216.853 18.3182C218.463 17.3712 220.371 16.8977 222.577 16.8977C224.784 16.8977 226.687 17.3712 228.288 18.3182C229.897 19.2557 231.138 20.572 232.009 22.267C232.88 23.9527 233.316 25.9223 233.316 28.1761C233.316 30.411 232.88 32.3759 232.009 34.071C231.138 35.7566 229.897 37.0729 228.288 38.0199C226.687 38.9574 224.784 39.4261 222.577 39.4261ZM222.606 34.7386C223.61 34.7386 224.448 34.4545 225.12 33.8864C225.792 33.3087 226.299 32.5227 226.64 31.5284C226.99 30.5341 227.165 29.4025 227.165 28.1335C227.165 26.8646 226.99 25.733 226.64 24.7386C226.299 23.7443 225.792 22.9583 225.12 22.3807C224.448 21.803 223.61 21.5142 222.606 21.5142C221.593 21.5142 220.74 21.803 220.049 22.3807C219.367 22.9583 218.851 23.7443 218.501 24.7386C218.16 25.733 217.989 26.8646 217.989 28.1335C217.989 29.4025 218.16 30.5341 218.501 31.5284C218.851 32.5227 219.367 33.3087 220.049 33.8864C220.74 34.4545 221.593 34.7386 222.606 34.7386ZM260.5 29.7102V17.1818H266.551V39H260.741V35.0369H260.514C260.022 36.3153 259.203 37.3428 258.057 38.1193C256.92 38.8958 255.533 39.2841 253.895 39.2841C252.437 39.2841 251.153 38.9527 250.045 38.2898C248.938 37.6269 248.071 36.6847 247.446 35.4631C246.83 34.2415 246.518 32.7784 246.509 31.0739V17.1818H252.56V29.9943C252.569 31.2822 252.915 32.3002 253.597 33.0483C254.278 33.7964 255.192 34.1705 256.338 34.1705C257.067 34.1705 257.749 34.0047 258.384 33.6733C259.018 33.3324 259.529 32.8305 259.918 32.1676C260.315 31.5047 260.509 30.6856 260.5 29.7102ZM289.545 23.4034L284.005 23.7443C283.91 23.2708 283.707 22.8447 283.394 22.4659C283.082 22.0777 282.67 21.7699 282.158 21.5426C281.656 21.3059 281.055 21.1875 280.354 21.1875C279.417 21.1875 278.626 21.3864 277.982 21.7841C277.338 22.1723 277.016 22.6932 277.016 23.3466C277.016 23.8674 277.225 24.3078 277.641 24.6676C278.058 25.0275 278.773 25.3163 279.786 25.5341L283.735 26.3295C285.856 26.7652 287.438 27.4659 288.479 28.4318C289.521 29.3977 290.042 30.6667 290.042 32.2386C290.042 33.6686 289.621 34.9233 288.778 36.0028C287.944 37.0824 286.799 37.9252 285.34 38.5312C283.891 39.1278 282.22 39.4261 280.326 39.4261C277.438 39.4261 275.137 38.8248 273.423 37.6222C271.718 36.41 270.719 34.7623 270.425 32.679L276.377 32.3665C276.557 33.2472 276.993 33.9195 277.684 34.3835C278.375 34.8381 279.261 35.0653 280.34 35.0653C281.401 35.0653 282.253 34.8617 282.897 34.4545C283.55 34.0379 283.882 33.5028 283.891 32.8494C283.882 32.3002 283.65 31.8504 283.195 31.5C282.741 31.1402 282.04 30.8655 281.093 30.6761L277.315 29.9233C275.184 29.4972 273.598 28.7585 272.556 27.7074C271.524 26.6562 271.008 25.3163 271.008 23.6875C271.008 22.286 271.387 21.0786 272.144 20.0653C272.911 19.0521 273.986 18.2708 275.369 17.7216C276.761 17.1723 278.389 16.8977 280.255 16.8977C283.011 16.8977 285.179 17.4801 286.761 18.6449C288.352 19.8097 289.28 21.3958 289.545 23.4034ZM303.795 39.4261C301.551 39.4261 299.619 38.9716 298 38.0625C296.39 37.1439 295.15 35.8466 294.278 34.1705C293.407 32.4848 292.972 30.4915 292.972 28.1903C292.972 25.946 293.407 23.9763 294.278 22.2812C295.15 20.5862 296.376 19.2652 297.957 18.3182C299.548 17.3712 301.414 16.8977 303.554 16.8977C304.993 16.8977 306.333 17.1297 307.574 17.5938C308.824 18.0483 309.913 18.7348 310.841 19.6534C311.778 20.572 312.508 21.7273 313.028 23.1193C313.549 24.5019 313.81 26.1212 313.81 27.9773V29.6392H295.386V25.8892H308.114C308.114 25.018 307.924 24.2462 307.545 23.5739C307.167 22.9015 306.641 22.3759 305.969 21.9972C305.306 21.6089 304.534 21.4148 303.653 21.4148C302.735 21.4148 301.92 21.6278 301.21 22.054C300.509 22.4706 299.96 23.0341 299.562 23.7443C299.165 24.4451 298.961 25.2263 298.952 26.0881V29.6534C298.952 30.733 299.151 31.6657 299.548 32.4517C299.955 33.2377 300.528 33.8438 301.267 34.2699C302.006 34.696 302.882 34.9091 303.895 34.9091C304.567 34.9091 305.183 34.8144 305.741 34.625C306.3 34.4356 306.778 34.1515 307.176 33.7727C307.574 33.3939 307.877 32.9299 308.085 32.3807L313.682 32.75C313.398 34.0947 312.815 35.2689 311.935 36.2727C311.063 37.267 309.937 38.0436 308.554 38.6023C307.181 39.1515 305.595 39.4261 303.795 39.4261ZM336.874 39.4261C334.668 39.4261 332.76 38.9574 331.15 38.0199C329.549 37.0729 328.314 35.7566 327.442 34.071C326.571 32.3759 326.136 30.411 326.136 28.1761C326.136 25.9223 326.571 23.9527 327.442 22.267C328.314 20.572 329.549 19.2557 331.15 18.3182C332.76 17.3712 334.668 16.8977 336.874 16.8977C339.081 16.8977 340.984 17.3712 342.585 18.3182C344.194 19.2557 345.435 20.572 346.306 22.267C347.177 23.9527 347.613 25.9223 347.613 28.1761C347.613 30.411 347.177 32.3759 346.306 34.071C345.435 35.7566 344.194 37.0729 342.585 38.0199C340.984 38.9574 339.081 39.4261 336.874 39.4261ZM336.903 34.7386C337.906 34.7386 338.745 34.4545 339.417 33.8864C340.089 33.3087 340.596 32.5227 340.937 31.5284C341.287 30.5341 341.462 29.4025 341.462 28.1335C341.462 26.8646 341.287 25.733 340.937 24.7386C340.596 23.7443 340.089 22.9583 339.417 22.3807C338.745 21.803 337.906 21.5142 336.903 21.5142C335.889 21.5142 335.037 21.803 334.346 22.3807C333.664 22.9583 333.148 23.7443 332.798 24.7386C332.457 25.733 332.286 26.8646 332.286 28.1335C332.286 29.4025 332.457 30.5341 332.798 31.5284C333.148 32.5227 333.664 33.3087 334.346 33.8864C335.037 34.4545 335.889 34.7386 336.903 34.7386ZM365.539 29.7102V17.1818H371.59V39H365.781V35.0369H365.553C365.061 36.3153 364.242 37.3428 363.096 38.1193C361.96 38.8958 360.572 39.2841 358.934 39.2841C357.476 39.2841 356.192 38.9527 355.085 38.2898C353.977 37.6269 353.11 36.6847 352.485 35.4631C351.87 34.2415 351.557 32.7784 351.548 31.0739V17.1818H357.599V29.9943C357.608 31.2822 357.954 32.3002 358.636 33.0483C359.317 33.7964 360.231 34.1705 361.377 34.1705C362.106 34.1705 362.788 34.0047 363.423 33.6733C364.057 33.3324 364.568 32.8305 364.957 32.1676C365.354 31.5047 365.549 30.6856 365.539 29.7102ZM376.43 39V17.1818H382.297V20.9886H382.524C382.922 19.6345 383.589 18.6117 384.527 17.9205C385.464 17.2197 386.544 16.8693 387.766 16.8693C388.069 16.8693 388.395 16.8883 388.746 16.9261C389.096 16.964 389.404 17.0161 389.669 17.0824V22.4517C389.385 22.3665 388.992 22.2907 388.49 22.2244C387.988 22.1581 387.529 22.125 387.112 22.125C386.222 22.125 385.427 22.3191 384.726 22.7074C384.035 23.0862 383.485 23.6165 383.078 24.2983C382.68 24.9801 382.482 25.7661 382.482 26.6562V39H376.43ZM408.277 39.4119C406.885 39.4119 405.644 39.1705 404.555 38.6875C403.466 38.1951 402.605 37.4706 401.97 36.5142C401.345 35.5483 401.033 34.3456 401.033 32.9062C401.033 31.6941 401.255 30.6761 401.7 29.8523C402.145 29.0284 402.751 28.3655 403.518 27.8636C404.286 27.3617 405.157 26.983 406.132 26.7273C407.117 26.4716 408.149 26.2917 409.229 26.1875C410.498 26.0549 411.52 25.9318 412.297 25.8182C413.073 25.6951 413.637 25.5152 413.987 25.2784C414.338 25.0417 414.513 24.6913 414.513 24.2273V24.142C414.513 23.2424 414.229 22.5464 413.661 22.054C413.102 21.5616 412.306 21.3153 411.274 21.3153C410.185 21.3153 409.319 21.5568 408.675 22.0398C408.031 22.5133 407.605 23.1098 407.396 23.8295L401.8 23.375C402.084 22.0492 402.643 20.9034 403.476 19.9375C404.309 18.9621 405.384 18.214 406.7 17.6932C408.026 17.1629 409.56 16.8977 411.303 16.8977C412.515 16.8977 413.675 17.0398 414.783 17.3239C415.9 17.608 416.89 18.0483 417.751 18.6449C418.623 19.2415 419.309 20.0085 419.811 20.946C420.313 21.8741 420.564 22.9867 420.564 24.2841V39H414.825V35.9744H414.655C414.304 36.6562 413.836 37.2576 413.249 37.7784C412.661 38.2898 411.956 38.6922 411.132 38.9858C410.308 39.2699 409.357 39.4119 408.277 39.4119ZM410.01 35.2358C410.9 35.2358 411.686 35.0606 412.368 34.7102C413.05 34.3504 413.585 33.8674 413.973 33.2614C414.361 32.6553 414.555 31.9687 414.555 31.2017V28.8864C414.366 29.0095 414.106 29.1231 413.774 29.2273C413.452 29.322 413.088 29.4119 412.68 29.4972C412.273 29.5729 411.866 29.6439 411.459 29.7102C411.052 29.767 410.682 29.8191 410.351 29.8665C409.641 29.9706 409.02 30.1364 408.49 30.3636C407.96 30.5909 407.548 30.8987 407.254 31.2869C406.961 31.6657 406.814 32.1392 406.814 32.7074C406.814 33.5312 407.112 34.161 407.709 34.5966C408.315 35.0227 409.082 35.2358 410.01 35.2358ZM425.259 47.1818V17.1818H431.224V20.8466H431.494C431.759 20.2595 432.143 19.6629 432.645 19.0568C433.156 18.4413 433.819 17.9299 434.634 17.5227C435.457 17.1061 436.48 16.8977 437.702 16.8977C439.293 16.8977 440.76 17.3144 442.105 18.1477C443.45 18.9716 444.525 20.2169 445.33 21.8835C446.134 23.5407 446.537 25.6193 446.537 28.1193C446.537 30.553 446.144 32.608 445.358 34.2841C444.581 35.9508 443.521 37.215 442.176 38.0767C440.841 38.929 439.345 39.3551 437.688 39.3551C436.513 39.3551 435.514 39.161 434.69 38.7727C433.876 38.3845 433.208 37.8968 432.688 37.3097C432.167 36.7131 431.769 36.1117 431.494 35.5057H431.31V47.1818H425.259ZM431.182 28.0909C431.182 29.3883 431.362 30.5199 431.722 31.4858C432.081 32.4517 432.602 33.2045 433.284 33.7443C433.966 34.2746 434.795 34.5398 435.77 34.5398C436.755 34.5398 437.588 34.2699 438.27 33.7301C438.952 33.1809 439.468 32.4233 439.818 31.4574C440.178 30.482 440.358 29.3598 440.358 28.0909C440.358 26.8314 440.183 25.7235 439.832 24.767C439.482 23.8106 438.966 23.0625 438.284 22.5227C437.602 21.983 436.764 21.7131 435.77 21.7131C434.785 21.7131 433.952 21.9735 433.27 22.4943C432.598 23.0152 432.081 23.7538 431.722 24.7102C431.362 25.6667 431.182 26.7936 431.182 28.0909ZM450.571 47.1818V17.1818H456.537V20.8466H456.807C457.072 20.2595 457.455 19.6629 457.957 19.0568C458.469 18.4413 459.132 17.9299 459.946 17.5227C460.77 17.1061 461.793 16.8977 463.014 16.8977C464.605 16.8977 466.073 17.3144 467.418 18.1477C468.762 18.9716 469.837 20.2169 470.642 21.8835C471.447 23.5407 471.849 25.6193 471.849 28.1193C471.849 30.553 471.456 32.608 470.67 34.2841C469.894 35.9508 468.833 37.215 467.489 38.0767C466.153 38.929 464.657 39.3551 463 39.3551C461.826 39.3551 460.827 39.161 460.003 38.7727C459.188 38.3845 458.521 37.8968 458 37.3097C457.479 36.7131 457.081 36.1117 456.807 35.5057H456.622V47.1818H450.571ZM456.494 28.0909C456.494 29.3883 456.674 30.5199 457.034 31.4858C457.394 32.4517 457.915 33.2045 458.597 33.7443C459.278 34.2746 460.107 34.5398 461.082 34.5398C462.067 34.5398 462.901 34.2699 463.582 33.7301C464.264 33.1809 464.78 32.4233 465.131 31.4574C465.491 30.482 465.67 29.3598 465.67 28.0909C465.67 26.8314 465.495 25.7235 465.145 24.767C464.795 23.8106 464.278 23.0625 463.597 22.5227C462.915 21.983 462.077 21.7131 461.082 21.7131C460.098 21.7131 459.264 21.9735 458.582 22.4943C457.91 23.0152 457.394 23.7538 457.034 24.7102C456.674 25.6667 456.494 26.7936 456.494 28.0909Z" fill="black"/>
<rect y="51" width="471" height="11" fill="#F4F4F4"/>
</svg>
