<svg width="595" height="65" viewBox="0 0 595 65" fill="none" xmlns="http://www.w3.org/2000/svg">
<path d="M11.3459 49L0.941051 12.6364H9.33949L15.3587 37.9027H15.6605L22.3011 12.6364H29.4922L36.1151 37.956H36.4347L42.4538 12.6364H50.8523L40.4474 49H32.9545L26.0298 25.2251H25.7457L18.8388 49H11.3459ZM62.389 33.233V49H54.8251V12.6364H62.176V26.5391H62.4956C63.1111 24.9292 64.1054 23.6686 65.4785 22.7571C66.8516 21.8338 68.5739 21.3722 70.6454 21.3722C72.5394 21.3722 74.1906 21.7865 75.5993 22.6151C77.0197 23.4318 78.1206 24.6096 78.9018 26.1484C79.6949 27.6754 80.0855 29.5043 80.0737 31.6349V49H72.5098V32.9844C72.5216 31.3035 72.0955 29.9955 71.2314 29.0604C70.3791 28.1252 69.1835 27.6577 67.6447 27.6577C66.6149 27.6577 65.7034 27.8767 64.9103 28.3146C64.1291 28.7526 63.5136 29.3918 63.0637 30.2322C62.6258 31.0608 62.4009 32.0611 62.389 33.233ZM89.7195 59.2273C88.7607 59.2273 87.861 59.1503 87.0206 58.9964C86.192 58.8544 85.5054 58.6709 84.9609 58.446L86.6655 52.7997C87.5533 53.072 88.3523 53.2199 89.0625 53.2436C89.7846 53.2673 90.406 53.1016 90.9268 52.7464C91.4595 52.3913 91.8916 51.7876 92.223 50.9354L92.6669 49.7812L82.8835 21.7273H90.8381L96.4844 41.7557H96.7685L102.468 21.7273H110.476L99.8757 51.9474C99.3667 53.4152 98.6742 54.6937 97.7983 55.7827C96.9342 56.8835 95.8393 57.7299 94.5135 58.3217C93.1877 58.9254 91.5897 59.2273 89.7195 59.2273ZM138.241 49.5327C135.448 49.5327 133.045 48.9408 131.032 47.7571C129.032 46.5616 127.493 44.9044 126.416 42.7855C125.351 40.6667 124.818 38.2282 124.818 35.4702C124.818 32.6766 125.357 30.2263 126.434 28.1193C127.523 26.0005 129.068 24.3492 131.068 23.1655C133.068 21.9699 135.448 21.3722 138.206 21.3722C140.585 21.3722 142.668 21.8042 144.456 22.6683C146.243 23.5324 147.658 24.7457 148.699 26.3082C149.741 27.8707 150.315 29.7055 150.422 31.8125H143.284C143.083 30.4512 142.55 29.3563 141.686 28.5277C140.834 27.6873 139.715 27.267 138.33 27.267C137.158 27.267 136.134 27.5866 135.258 28.2259C134.394 28.8532 133.72 29.7706 133.234 30.978C132.749 32.1854 132.506 33.6473 132.506 35.3636C132.506 37.1037 132.743 38.5833 133.216 39.8026C133.702 41.0218 134.382 41.951 135.258 42.5902C136.134 43.2294 137.158 43.549 138.33 43.549C139.194 43.549 139.97 43.3714 140.656 43.0163C141.354 42.6612 141.929 42.1463 142.378 41.4716C142.84 40.785 143.142 39.9624 143.284 39.0036H150.422C150.303 41.0869 149.735 42.9216 148.717 44.5078C147.711 46.0821 146.32 47.3132 144.545 48.201C142.769 49.0888 140.668 49.5327 138.241 49.5327ZM162.828 33.233V49H155.265V12.6364H162.615V26.5391H162.935C163.551 24.9292 164.545 23.6686 165.918 22.7571C167.291 21.8338 169.013 21.3722 171.085 21.3722C172.979 21.3722 174.63 21.7865 176.039 22.6151C177.459 23.4318 178.56 24.6096 179.341 26.1484C180.134 27.6754 180.525 29.5043 180.513 31.6349V49H172.949V32.9844C172.961 31.3035 172.535 29.9955 171.671 29.0604C170.819 28.1252 169.623 27.6577 168.084 27.6577C167.054 27.6577 166.143 27.8767 165.35 28.3146C164.569 28.7526 163.953 29.3918 163.503 30.2322C163.065 31.0608 162.84 32.0611 162.828 33.233ZM198.788 49.5327C196.03 49.5327 193.645 48.9467 191.633 47.7749C189.632 46.5911 188.087 44.9458 186.998 42.8388C185.909 40.7199 185.365 38.2637 185.365 35.4702C185.365 32.6529 185.909 30.1908 186.998 28.0838C188.087 25.965 189.632 24.3196 191.633 23.1477C193.645 21.964 196.03 21.3722 198.788 21.3722C201.546 21.3722 203.925 21.964 205.926 23.1477C207.938 24.3196 209.489 25.965 210.578 28.0838C211.667 30.1908 212.211 32.6529 212.211 35.4702C212.211 38.2637 211.667 40.7199 210.578 42.8388C209.489 44.9458 207.938 46.5911 205.926 47.7749C203.925 48.9467 201.546 49.5327 198.788 49.5327ZM198.824 43.6733C200.078 43.6733 201.126 43.3182 201.966 42.608C202.807 41.8859 203.44 40.9034 203.866 39.6605C204.304 38.4176 204.523 37.0031 204.523 35.4169C204.523 33.8307 204.304 32.4162 203.866 31.1733C203.44 29.9304 202.807 28.9479 201.966 28.2259C201.126 27.5038 200.078 27.1428 198.824 27.1428C197.557 27.1428 196.492 27.5038 195.628 28.2259C194.775 28.9479 194.13 29.9304 193.692 31.1733C193.266 32.4162 193.053 33.8307 193.053 35.4169C193.053 37.0031 193.266 38.4176 193.692 39.6605C194.13 40.9034 194.775 41.8859 195.628 42.608C196.492 43.3182 197.557 43.6733 198.824 43.6733ZM229.452 49.5327C226.694 49.5327 224.309 48.9467 222.297 47.7749C220.296 46.5911 218.751 44.9458 217.662 42.8388C216.573 40.7199 216.029 38.2637 216.029 35.4702C216.029 32.6529 216.573 30.1908 217.662 28.0838C218.751 25.965 220.296 24.3196 222.297 23.1477C224.309 21.964 226.694 21.3722 229.452 21.3722C232.21 21.3722 234.59 21.964 236.59 23.1477C238.602 24.3196 240.153 25.965 241.242 28.0838C242.331 30.1908 242.876 32.6529 242.876 35.4702C242.876 38.2637 242.331 40.7199 241.242 42.8388C240.153 44.9458 238.602 46.5911 236.59 47.7749C234.59 48.9467 232.21 49.5327 229.452 49.5327ZM229.488 43.6733C230.742 43.6733 231.79 43.3182 232.631 42.608C233.471 41.8859 234.104 40.9034 234.53 39.6605C234.968 38.4176 235.187 37.0031 235.187 35.4169C235.187 33.8307 234.968 32.4162 234.53 31.1733C234.104 29.9304 233.471 28.9479 232.631 28.2259C231.79 27.5038 230.742 27.1428 229.488 27.1428C228.221 27.1428 227.156 27.5038 226.292 28.2259C225.439 28.9479 224.794 29.9304 224.356 31.1733C223.93 32.4162 223.717 33.8307 223.717 35.4169C223.717 37.0031 223.93 38.4176 224.356 39.6605C224.794 40.9034 225.439 41.8859 226.292 42.608C227.156 43.3182 228.221 43.6733 229.488 43.6733ZM270.486 29.5043L263.561 29.9304C263.443 29.3385 263.188 28.8059 262.797 28.3324C262.407 27.8471 261.892 27.4624 261.253 27.1783C260.625 26.8823 259.874 26.7344 258.998 26.7344C257.826 26.7344 256.837 26.983 256.032 27.4801C255.228 27.9654 254.825 28.6165 254.825 29.4332C254.825 30.0843 255.086 30.6347 255.606 31.0845C256.127 31.5343 257.021 31.8954 258.287 32.1676L263.224 33.1619C265.875 33.7064 267.852 34.5824 269.154 35.7898C270.456 36.9972 271.107 38.5833 271.107 40.5483C271.107 42.3357 270.58 43.9041 269.527 45.2536C268.485 46.603 267.053 47.6565 265.23 48.4141C263.419 49.1598 261.33 49.5327 258.962 49.5327C255.352 49.5327 252.475 48.781 250.333 47.2777C248.202 45.7625 246.953 43.7029 246.586 41.0987L254.026 40.7081C254.251 41.8089 254.796 42.6494 255.66 43.2294C256.524 43.7976 257.631 44.0817 258.98 44.0817C260.306 44.0817 261.371 43.8272 262.176 43.3182C262.993 42.7973 263.407 42.1286 263.419 41.3118C263.407 40.6252 263.117 40.063 262.549 39.625C261.981 39.1752 261.105 38.8319 259.921 38.5952L255.198 37.6541C252.535 37.1214 250.552 36.1982 249.25 34.8842C247.96 33.5703 247.314 31.8954 247.314 29.8594C247.314 28.1075 247.788 26.5982 248.735 25.3317C249.694 24.0651 251.037 23.0885 252.765 22.402C254.506 21.7154 256.541 21.3722 258.873 21.3722C262.318 21.3722 265.029 22.1001 267.006 23.5561C268.994 25.0121 270.154 26.9948 270.486 29.5043ZM288.299 49.5327C285.494 49.5327 283.079 48.9645 281.055 47.8281C279.042 46.6799 277.492 45.0582 276.403 42.9631C275.314 40.8561 274.769 38.3643 274.769 35.4879C274.769 32.6825 275.314 30.2204 276.403 28.1016C277.492 25.9827 279.025 24.3314 281.001 23.1477C282.99 21.964 285.322 21.3722 287.997 21.3722C289.796 21.3722 291.471 21.6622 293.022 22.2422C294.585 22.8104 295.946 23.6686 297.106 24.8168C298.278 25.965 299.189 27.4091 299.84 29.1491C300.491 30.8774 300.817 32.9015 300.817 35.2216V37.299H277.788V32.6115H293.697C293.697 31.5225 293.46 30.5578 292.987 29.7173C292.513 28.8769 291.856 28.2199 291.016 27.7464C290.187 27.2611 289.222 27.0185 288.121 27.0185C286.973 27.0185 285.955 27.2848 285.067 27.8175C284.192 28.3383 283.505 29.0426 283.008 29.9304C282.511 30.8063 282.256 31.7829 282.244 32.8601V37.3168C282.244 38.6662 282.493 39.8321 282.99 40.8146C283.499 41.7971 284.215 42.5547 285.138 43.0874C286.062 43.62 287.157 43.8864 288.423 43.8864C289.264 43.8864 290.033 43.768 290.732 43.5312C291.43 43.2945 292.028 42.9394 292.525 42.4659C293.022 41.9924 293.401 41.4124 293.661 40.7259L300.657 41.1875C300.302 42.8684 299.574 44.3362 298.473 45.5909C297.384 46.8338 295.975 47.8045 294.247 48.5028C292.531 49.1894 290.548 49.5327 288.299 49.5327ZM317.467 49V12.6364H341.544V18.9751H325.155V27.6399H339.946V33.9787H325.155V49H317.467ZM357 49.5327C354.195 49.5327 351.78 48.9645 349.756 47.8281C347.744 46.6799 346.193 45.0582 345.104 42.9631C344.015 40.8561 343.47 38.3643 343.47 35.4879C343.47 32.6825 344.015 30.2204 345.104 28.1016C346.193 25.9827 347.726 24.3314 349.703 23.1477C351.691 21.964 354.023 21.3722 356.698 21.3722C358.498 21.3722 360.173 21.6622 361.723 22.2422C363.286 22.8104 364.647 23.6686 365.807 24.8168C366.979 25.965 367.89 27.4091 368.541 29.1491C369.192 30.8774 369.518 32.9015 369.518 35.2216V37.299H346.489V32.6115H362.398C362.398 31.5225 362.161 30.5578 361.688 29.7173C361.214 28.8769 360.557 28.2199 359.717 27.7464C358.888 27.2611 357.923 27.0185 356.823 27.0185C355.674 27.0185 354.656 27.2848 353.769 27.8175C352.893 28.3383 352.206 29.0426 351.709 29.9304C351.212 30.8063 350.957 31.7829 350.945 32.8601V37.3168C350.945 38.6662 351.194 39.8321 351.691 40.8146C352.2 41.7971 352.916 42.5547 353.84 43.0874C354.763 43.62 355.858 43.8864 357.124 43.8864C357.965 43.8864 358.734 43.768 359.433 43.5312C360.131 43.2945 360.729 42.9394 361.226 42.4659C361.723 41.9924 362.102 41.4124 362.362 40.7259L369.358 41.1875C369.003 42.8684 368.275 44.3362 367.174 45.5909C366.085 46.8338 364.677 47.8045 362.948 48.5028C361.232 49.1894 359.249 49.5327 357 49.5327ZM382.231 49.5149C380.491 49.5149 378.94 49.2131 377.579 48.6094C376.218 47.9938 375.141 47.0883 374.347 45.8928C373.566 44.6854 373.176 43.1821 373.176 41.3828C373.176 39.8677 373.454 38.5952 374.01 37.5653C374.566 36.5355 375.324 35.7069 376.283 35.0795C377.242 34.4522 378.331 33.9787 379.55 33.6591C380.781 33.3395 382.071 33.1146 383.421 32.9844C385.007 32.8187 386.285 32.6648 387.256 32.5227C388.227 32.3688 388.931 32.1439 389.369 31.848C389.807 31.5521 390.026 31.1141 390.026 30.5341V30.4276C390.026 29.303 389.671 28.433 388.96 27.8175C388.262 27.2019 387.268 26.8942 385.977 26.8942C384.616 26.8942 383.533 27.196 382.728 27.7997C381.923 28.3916 381.391 29.1373 381.13 30.0369L374.134 29.4688C374.49 27.8116 375.188 26.3793 376.23 25.1719C377.271 23.9527 378.615 23.0175 380.26 22.3665C381.917 21.7036 383.835 21.3722 386.013 21.3722C387.528 21.3722 388.978 21.5497 390.363 21.9048C391.76 22.2599 392.997 22.8104 394.074 23.5561C395.163 24.3018 396.021 25.2607 396.649 26.4325C397.276 27.5926 397.59 28.9834 397.59 30.6051V49H390.416V45.218H390.203C389.765 46.0703 389.179 46.822 388.445 47.473C387.712 48.1122 386.83 48.6153 385.8 48.9822C384.77 49.3374 383.58 49.5149 382.231 49.5149ZM384.397 44.2947C385.51 44.2947 386.492 44.0758 387.345 43.6378C388.197 43.188 388.866 42.5843 389.351 41.8267C389.836 41.0691 390.079 40.2109 390.079 39.2521V36.358C389.842 36.5118 389.517 36.6539 389.102 36.7841C388.7 36.9025 388.244 37.0149 387.735 37.1214C387.226 37.2161 386.717 37.3049 386.208 37.3878C385.699 37.4588 385.238 37.5239 384.823 37.5831C383.936 37.7133 383.16 37.9205 382.497 38.2045C381.834 38.4886 381.32 38.8733 380.953 39.3587C380.586 39.8321 380.402 40.424 380.402 41.1342C380.402 42.1641 380.775 42.9512 381.521 43.4957C382.278 44.0284 383.237 44.2947 384.397 44.2947ZM426.15 29.5043L419.225 29.9304C419.107 29.3385 418.852 28.8059 418.461 28.3324C418.071 27.8471 417.556 27.4624 416.917 27.1783C416.289 26.8823 415.538 26.7344 414.662 26.7344C413.49 26.7344 412.501 26.983 411.697 27.4801C410.892 27.9654 410.489 28.6165 410.489 29.4332C410.489 30.0843 410.75 30.6347 411.27 31.0845C411.791 31.5343 412.685 31.8954 413.952 32.1676L418.888 33.1619C421.539 33.7064 423.516 34.5824 424.818 35.7898C426.12 36.9972 426.771 38.5833 426.771 40.5483C426.771 42.3357 426.244 43.9041 425.191 45.2536C424.149 46.603 422.717 47.6565 420.894 48.4141C419.083 49.1598 416.994 49.5327 414.626 49.5327C411.016 49.5327 408.14 48.781 405.997 47.2777C403.866 45.7625 402.617 43.7029 402.251 41.0987L409.69 40.7081C409.915 41.8089 410.46 42.6494 411.324 43.2294C412.188 43.7976 413.295 44.0817 414.644 44.0817C415.97 44.0817 417.035 43.8272 417.84 43.3182C418.657 42.7973 419.071 42.1286 419.083 41.3118C419.071 40.6252 418.781 40.063 418.213 39.625C417.645 39.1752 416.769 38.8319 415.585 38.5952L410.862 37.6541C408.199 37.1214 406.216 36.1982 404.914 34.8842C403.624 33.5703 402.979 31.8954 402.979 29.8594C402.979 28.1075 403.452 26.5982 404.399 25.3317C405.358 24.0651 406.701 23.0885 408.43 22.402C410.17 21.7154 412.206 21.3722 414.537 21.3722C417.982 21.3722 420.693 22.1001 422.67 23.5561C424.658 25.0121 425.818 26.9948 426.15 29.5043ZM446.04 21.7273V27.4091H429.616V21.7273H446.04ZM433.345 15.1932H440.909V40.6193C440.909 41.3177 441.016 41.8622 441.229 42.2528C441.442 42.6316 441.738 42.898 442.116 43.0518C442.507 43.2057 442.957 43.2827 443.466 43.2827C443.821 43.2827 444.176 43.2531 444.531 43.1939C444.886 43.1229 445.159 43.0696 445.348 43.0341L446.538 48.6626C446.159 48.781 445.626 48.9171 444.94 49.071C444.253 49.2367 443.419 49.3374 442.436 49.3729C440.613 49.4439 439.015 49.2012 437.642 48.6449C436.281 48.0885 435.221 47.2244 434.464 46.0526C433.706 44.8807 433.333 43.401 433.345 41.6136V15.1932ZM451.696 49V12.6364H476.199V18.9751H459.384V27.6399H474.938V33.9787H459.384V42.6612H476.27V49H451.696ZM489.946 49.5149C488.206 49.5149 486.655 49.2131 485.294 48.6094C483.933 47.9938 482.855 47.0883 482.062 45.8928C481.281 44.6854 480.89 43.1821 480.89 41.3828C480.89 39.8677 481.169 38.5952 481.725 37.5653C482.281 36.5355 483.039 35.7069 483.998 35.0795C484.956 34.4522 486.046 33.9787 487.265 33.6591C488.496 33.3395 489.786 33.1146 491.135 32.9844C492.722 32.8187 494 32.6648 494.971 32.5227C495.941 32.3688 496.646 32.1439 497.084 31.848C497.522 31.5521 497.741 31.1141 497.741 30.5341V30.4276C497.741 29.303 497.385 28.433 496.675 27.8175C495.977 27.2019 494.983 26.8942 493.692 26.8942C492.331 26.8942 491.248 27.196 490.443 27.7997C489.638 28.3916 489.105 29.1373 488.845 30.0369L481.849 29.4688C482.204 27.8116 482.903 26.3793 483.944 25.1719C484.986 23.9527 486.33 23.0175 487.975 22.3665C489.632 21.7036 491.55 21.3722 493.728 21.3722C495.243 21.3722 496.693 21.5497 498.078 21.9048C499.475 22.2599 500.712 22.8104 501.789 23.5561C502.878 24.3018 503.736 25.2607 504.363 26.4325C504.991 27.5926 505.305 28.9834 505.305 30.6051V49H498.131V45.218H497.918C497.48 46.0703 496.894 46.822 496.16 47.473C495.426 48.1122 494.545 48.6153 493.515 48.9822C492.485 49.3374 491.295 49.5149 489.946 49.5149ZM492.112 44.2947C493.225 44.2947 494.207 44.0758 495.059 43.6378C495.912 43.188 496.581 42.5843 497.066 41.8267C497.551 41.0691 497.794 40.2109 497.794 39.2521V36.358C497.557 36.5118 497.232 36.6539 496.817 36.7841C496.415 36.9025 495.959 37.0149 495.45 37.1214C494.941 37.2161 494.432 37.3049 493.923 37.3878C493.414 37.4588 492.952 37.5239 492.538 37.5831C491.65 37.7133 490.875 37.9205 490.212 38.2045C489.549 38.4886 489.034 38.8733 488.667 39.3587C488.3 39.8321 488.117 40.424 488.117 41.1342C488.117 42.1641 488.49 42.9512 489.236 43.4957C489.993 44.0284 490.952 44.2947 492.112 44.2947ZM533.865 29.5043L526.94 29.9304C526.821 29.3385 526.567 28.8059 526.176 28.3324C525.786 27.8471 525.271 27.4624 524.632 27.1783C524.004 26.8823 523.253 26.7344 522.377 26.7344C521.205 26.7344 520.216 26.983 519.411 27.4801C518.606 27.9654 518.204 28.6165 518.204 29.4332C518.204 30.0843 518.464 30.6347 518.985 31.0845C519.506 31.5343 520.4 31.8954 521.666 32.1676L526.602 33.1619C529.254 33.7064 531.231 34.5824 532.533 35.7898C533.835 36.9972 534.486 38.5833 534.486 40.5483C534.486 42.3357 533.959 43.9041 532.906 45.2536C531.864 46.603 530.432 47.6565 528.609 48.4141C526.798 49.1598 524.709 49.5327 522.341 49.5327C518.731 49.5327 515.854 48.781 513.712 47.2777C511.581 45.7625 510.332 43.7029 509.965 41.0987L517.405 40.7081C517.63 41.8089 518.174 42.6494 519.039 43.2294C519.903 43.7976 521.009 44.0817 522.359 44.0817C523.685 44.0817 524.75 43.8272 525.555 43.3182C526.372 42.7973 526.786 42.1286 526.798 41.3118C526.786 40.6252 526.496 40.063 525.928 39.625C525.36 39.1752 524.484 38.8319 523.3 38.5952L518.577 37.6541C515.914 37.1214 513.931 36.1982 512.629 34.8842C511.338 33.5703 510.693 31.8954 510.693 29.8594C510.693 28.1075 511.167 26.5982 512.114 25.3317C513.073 24.0651 514.416 23.0885 516.144 22.402C517.884 21.7154 519.92 21.3722 522.252 21.3722C525.697 21.3722 528.408 22.1001 530.384 23.5561C532.373 25.0121 533.533 26.9948 533.865 29.5043ZM551.678 49.5327C548.873 49.5327 546.458 48.9645 544.434 47.8281C542.421 46.6799 540.871 45.0582 539.782 42.9631C538.693 40.8561 538.148 38.3643 538.148 35.4879C538.148 32.6825 538.693 30.2204 539.782 28.1016C540.871 25.9827 542.404 24.3314 544.38 23.1477C546.369 21.964 548.701 21.3722 551.376 21.3722C553.175 21.3722 554.85 21.6622 556.401 22.2422C557.963 22.8104 559.325 23.6686 560.485 24.8168C561.657 25.965 562.568 27.4091 563.219 29.1491C563.87 30.8774 564.196 32.9015 564.196 35.2216V37.299H541.167V32.6115H557.076C557.076 31.5225 556.839 30.5578 556.365 29.7173C555.892 28.8769 555.235 28.2199 554.395 27.7464C553.566 27.2611 552.601 27.0185 551.5 27.0185C550.352 27.0185 549.334 27.2848 548.446 27.8175C547.57 28.3383 546.884 29.0426 546.387 29.9304C545.89 30.8063 545.635 31.7829 545.623 32.8601V37.3168C545.623 38.6662 545.872 39.8321 546.369 40.8146C546.878 41.7971 547.594 42.5547 548.517 43.0874C549.441 43.62 550.536 43.8864 551.802 43.8864C552.643 43.8864 553.412 43.768 554.11 43.5312C554.809 43.2945 555.407 42.9394 555.904 42.4659C556.401 41.9924 556.78 41.4124 557.04 40.7259L564.036 41.1875C563.681 42.8684 562.953 44.3362 561.852 45.5909C560.763 46.8338 559.354 47.8045 557.626 48.5028C555.91 49.1894 553.927 49.5327 551.678 49.5327ZM575.63 38.098V37.4943C575.642 35.4228 575.826 33.7715 576.181 32.5405C576.548 31.3094 577.08 30.3151 577.779 29.5575C578.477 28.8 579.318 28.1134 580.3 27.4979C581.034 27.0244 581.691 26.5331 582.271 26.0241C582.851 25.5152 583.313 24.9529 583.656 24.3374C583.999 23.71 584.171 23.0116 584.171 22.2422C584.171 21.4254 583.975 20.7093 583.585 20.0938C583.194 19.4782 582.667 19.0047 582.005 18.6733C581.354 18.3419 580.632 18.1761 579.838 18.1761C579.069 18.1761 578.341 18.3478 577.654 18.6911C576.968 19.0225 576.406 19.5196 575.968 20.1825C575.53 20.8336 575.293 21.6444 575.257 22.6151H568.013C568.072 20.2476 568.641 18.2945 569.718 16.7557C570.795 15.205 572.221 14.0509 573.997 13.2933C575.772 12.5239 577.731 12.1392 579.874 12.1392C582.23 12.1392 584.313 12.5298 586.124 13.3111C587.935 14.0805 589.355 15.1991 590.385 16.6669C591.415 18.1347 591.93 19.9044 591.93 21.9759C591.93 23.3608 591.699 24.5919 591.238 25.669C590.788 26.7344 590.154 27.6813 589.338 28.5099C588.521 29.3267 587.556 30.0665 586.444 30.7294C585.508 31.2857 584.739 31.8658 584.135 32.4695C583.543 33.0732 583.1 33.7715 582.804 34.5646C582.52 35.3577 582.372 36.3343 582.36 37.4943V38.098H575.63ZM579.146 49.4616C577.962 49.4616 576.95 49.0473 576.11 48.2188C575.281 47.3783 574.873 46.3722 574.885 45.2003C574.873 44.0402 575.281 43.0459 576.11 42.2173C576.95 41.3887 577.962 40.9744 579.146 40.9744C580.27 40.9744 581.259 41.3887 582.111 42.2173C582.963 43.0459 583.395 44.0402 583.407 45.2003C583.395 45.9815 583.188 46.6977 582.786 47.3487C582.395 47.9879 581.88 48.5028 581.241 48.8935C580.602 49.2723 579.904 49.4616 579.146 49.4616Z" fill="black"/>
<rect y="63" width="594" height="2" fill="black"/>
</svg>
