<svg width="1440" height="203" viewBox="0 0 1440 203" fill="none" xmlns="http://www.w3.org/2000/svg">
<path fill-rule="evenodd" clip-rule="evenodd" d="M0 0L59.625 7.62717C120.375 15.2543 239.625 30.5087 360 56.3237C480.375 82.7254 599.625 120.275 720 127.902C840.375 135.529 959.625 112.647 1080 105.607C1200.38 97.9798 1319.62 105.607 1380.38 109.127L1440 112.647V203H1380.38C1319.62 203 1200.38 203 1080 203C959.625 203 840.375 203 720 203C599.625 203 480.375 203 360 203C239.625 203 120.375 203 59.625 203H0V0Z" fill="#406D59"/>
</svg>
